<?xml version="1.0" standalone="no"?>
<!DOCTYPE svg PUBLIC "-//W3C//DTD SVG 20010904//EN"
 "http://www.w3.org/TR/2001/REC-SVG-20010904/DTD/svg10.dtd">
<svg version="1.0" xmlns="http://www.w3.org/2000/svg"
 width="512.000000pt" height="512.000000pt" viewBox="0 0 512.000000 512.000000"
 preserveAspectRatio="xMidYMid meet">
<metadata>
Created by potrace 1.11, written by Peter Selinger 2001-2013
</metadata>
<g transform="translate(0.000000,512.000000) scale(0.100000,-0.100000)"
fill="#000000" stroke="none">
<path d="M3988 5100 c-104 -22 -181 -49 -268 -97 -98 -53 -153 -98 -307 -251
-82 -81 -222 -204 -335 -293 -168 -133 -543 -443 -589 -488 -9 -9 -34 -32 -55
-51 -294 -264 -336 -303 -609 -575 -214 -214 -373 -378 -465 -481 -57 -64
-200 -222 -220 -244 -8 -9 -49 -56 -90 -105 -41 -50 -77 -92 -80 -95 -19 -16
-180 -215 -330 -406 -63 -80 -186 -218 -273 -307 -134 -137 -247 -274 -247
-303 0 -4 -6 -15 -14 -23 -22 -26 -66 -154 -86 -248 -23 -112 -20 -319 6 -405
3 -9 6 -25 8 -35 13 -65 80 -205 139 -291 34 -51 156 -176 208 -214 122 -90
280 -156 419 -175 58 -9 243 -9 295 -1 144 23 303 90 420 178 28 20 118 104
200 185 82 81 165 159 185 174 19 14 37 28 40 31 3 3 25 21 50 40 25 19 50 39
57 45 7 5 18 15 25 20 98 76 396 322 418 345 3 3 32 27 65 55 33 27 80 69 105
92 25 23 56 51 70 63 249 214 842 801 1050 1039 36 40 83 93 105 116 61 65 90
98 230 265 72 85 136 162 144 170 13 13 146 181 290 363 25 32 113 127 195
210 221 225 286 324 340 517 26 92 30 130 30 260 0 211 -56 385 -177 550 -87
119 -236 244 -358 298 -65 30 -189 70 -235 77 -97 15 -270 13 -356 -5z m331
-110 c392 -67 687 -420 685 -820 -1 -168 -61 -351 -158 -485 -35 -49 -304
-325 -317 -325 -3 0 -269 263 -591 584 l-586 585 142 140 c160 160 208 197
321 252 159 77 324 99 504 69z m-3136 -3815 l584 -585 -141 -140 c-153 -152
-206 -194 -306 -245 -227 -115 -499 -118 -729 -8 -364 174 -554 592 -443 973
8 30 16 57 17 60 1 3 9 23 19 45 10 22 21 49 26 60 21 52 109 159 235 286 76
76 142 139 146 139 5 0 271 -263 592 -585z"/>
</g>
</svg>
